<?xml version="1.0" encoding="utf-8"?>
<!-- Generator: Adobe Illustrator 26.3.1, SVG Export Plug-In . SVG Version: 6.00 Build 0)  -->
<svg version="1.1" id="Markenelemente_Typo" xmlns="http://www.w3.org/2000/svg" xmlns:xlink="http://www.w3.org/1999/xlink"
	 x="0px" y="0px" width="293.5px" height="35.7px" viewBox="0 0 293.5 35.7" style="enable-background:new 0 0 293.5 35.7;"
	 xml:space="preserve">
<g>
	<path d="M0,35l0.6-5.6c0.8,0.2,3.1,0.5,3.9,0.5c3.6,0,4.9-2.5,4.9-5.7V0.6h6.1v23.6c0,6.2-3,11.5-11,11.5C3.5,35.7,1.6,35.4,0,35z"
		/>
	<path d="M19.8,17.9C19.8,8.1,27.5,0,37.3,0c9.8,0,17.5,8.1,17.5,17.9c0,9.8-7.7,17.8-17.5,17.8C27.5,35.7,19.8,27.6,19.8,17.9z
		 M48.7,17.9c0-6.6-4.9-12.2-11.5-12.2C30.7,5.7,26,11.2,26,17.9S30.7,30,37.3,30C43.9,30,48.7,24.5,48.7,17.9z"/>
	<path d="M57.5,25.1h6.1c0,2.7,2.6,5.2,6.4,5.2c3.5,0,5.8-2.2,5.8-4.9c0-2.4-2-3.8-5-4.6l-4.3-1.2c-7.4-1.9-8.7-6.4-8.7-9.4
		C57.7,4.1,63.1,0,69.4,0c6.3,0,11.3,3.9,11.3,10.4h-6.1c0-2.9-2.2-4.9-5.4-4.9c-3,0-5.4,2-5.4,4.7c0,1,0.3,3,4.2,4l4.1,1.2
		c5.4,1.5,9.6,4.3,9.6,9.8c0,6.3-5.3,10.5-12,10.5C62.4,35.7,57.5,31,57.5,25.1z"/>
	<path d="M92.6,29.6h15.6v5.5H86.6V0.6h21.2V6H92.6v9.3h13.2v5.6H92.6V29.6z"/>
	<path d="M134.1,6h-14.8v9.4H131v5.5h-11.7v14.2h-6.1V0.6h20.9V6z"/>
	<path d="M147.9,25.1h6.1c0,2.7,2.6,5.2,6.4,5.2c3.5,0,5.8-2.2,5.8-4.9c0-2.4-2-3.8-5-4.6l-4.3-1.2c-7.4-1.9-8.7-6.4-8.7-9.4
		c0-6.1,5.4-10.2,11.7-10.2c6.3,0,11.3,3.9,11.3,10.4H165c0-2.9-2.2-4.9-5.4-4.9c-3,0-5.4,2-5.4,4.7c0,1,0.3,3,4.2,4l4.1,1.2
		c5.4,1.5,9.6,4.3,9.6,9.8c0,6.3-5.3,10.5-12,10.5C152.8,35.7,147.9,31,147.9,25.1z"/>
	<path d="M183,29.6h15.6v5.5H177V0.6h21.2V6H183v9.3h13.2v5.6H183V29.6z"/>
	<path d="M204.1,35.1V0.6h6.1v34.5H204.1z"/>
	<path d="M242.5,25.3c0,4.9-3.5,9.8-10.6,9.8h-14.5V0.6h13.4c6,0,9.8,3.6,9.8,8.9c0,2.7-1,6-4.5,7.2
		C240.4,17.5,242.5,21.5,242.5,25.3z M230.6,6h-7.1v8.5h7.1c2.5,0,4-1.7,4-4.2C234.6,7.9,233.3,6,230.6,6z M231,29.6
		c3.6,0,5.4-2.4,5.4-5c0-2.5-1.6-5-5.2-5h-7.6v10H231z"/>
	<path d="M253.4,29.6H269v5.5h-21.7V0.6h21.2V6h-15.1v9.3h13.2v5.6h-13.2V29.6z"/>
	<path d="M280.1,29.6h13.4v5.5H274V0.6h6.1V29.6z"/>
</g>
</svg>
